<?xml version="1.0" encoding="UTF-8" standalone="no"?>
<!-- Created with Inkscape (http://www.inkscape.org/) -->

<svg
   width="52.061256mm"
   height="12.28723mm"
   viewBox="0 0 52.061256 12.28723"
   version="1.1"
   id="svg5"
   inkscape:version="1.1 (c68e22c387, 2021-05-23)"
   sodipodi:docname="heraldmq_logo.svg"
   xmlns:inkscape="http://www.inkscape.org/namespaces/inkscape"
   xmlns:sodipodi="http://sodipodi.sourceforge.net/DTD/sodipodi-0.dtd"
   xmlns="http://www.w3.org/2000/svg"
   xmlns:svg="http://www.w3.org/2000/svg">
  <sodipodi:namedview
     id="namedview7"
     pagecolor="#ffffff"
     bordercolor="#999999"
     borderopacity="1"
     inkscape:pageshadow="0"
     inkscape:pageopacity="0"
     inkscape:pagecheckerboard="0"
     inkscape:document-units="px"
     showgrid="false"
     inkscape:zoom="3.4988677"
     inkscape:cx="98.208424"
     inkscape:cy="42.020859"
     inkscape:window-width="1536"
     inkscape:window-height="795"
     inkscape:window-x="0"
     inkscape:window-y="0"
     inkscape:window-maximized="1"
     inkscape:current-layer="layer1"
     objecttolerance="10"
     fit-margin-top="0"
     fit-margin-left="0"
     fit-margin-right="0"
     fit-margin-bottom="0"
     inkscape:rotation="1" />
  <defs
     id="defs2" />
  <g
     inkscape:label="Layer 1"
     inkscape:groupmode="layer"
     id="layer1"
     transform="translate(-28.533097,-92.70734)">
    <g
       aria-label="heraldMQ"
       id="text2475"
       style="font-size:10.5833px;line-height:1.25;stroke-width:0.264583">
      <path
         d="m 28.533097,103.19107 0.842323,-0.14469 v -6.464702 l -0.842323,-0.144694 v -0.656288 h 1.860345 v 3.214264 q 0.289387,-0.403075 0.707965,-0.625283 0.418578,-0.222208 0.930173,-0.222208 0.899167,0 1.395259,0.537433 0.496092,0.537433 0.496092,1.653638 v 2.70784 l 0.842323,0.14469 v 0.65112 h -2.702668 v -0.65112 l 0.842323,-0.14469 v -2.71817 q 0,-0.692465 -0.299723,-1.023193 -0.294554,-0.330728 -0.883664,-0.330728 -0.418577,0 -0.764808,0.201538 -0.341064,0.196369 -0.563272,0.537433 v 3.33312 l 0.842323,0.14469 v 0.65112 h -2.702668 z"
         style="fill:#660066"
         id="path3637" />
      <path
         d="m 38.005356,103.95071 q -1.167883,0 -1.860345,-0.77514 -0.687295,-0.78031 -0.687295,-2.02054 v -0.22738 q 0,-1.19372 0.707965,-1.984367 0.713133,-0.795814 1.684647,-0.795814 1.126542,0 1.705316,0.682127 0.583942,0.682126 0.583942,1.819004 v 0.63562 h -3.627674 l -0.0155,0.0258 q 0.0155,0.80615 0.408243,1.32808 0.39274,0.51676 1.100704,0.51676 0.516763,0 0.904335,-0.14469 0.39274,-0.14987 0.676959,-0.40825 l 0.397907,0.66146 q -0.299722,0.28939 -0.795814,0.49092 -0.490925,0.19637 -1.183387,0.19637 z m -0.155028,-5.002259 q -0.511595,0 -0.873329,0.434081 -0.361734,0.428913 -0.444416,1.080038 l 0.01033,0.0258 h 2.578646 v -0.13435 q 0,-0.599449 -0.320393,-1.002524 -0.320393,-0.403075 -0.950843,-0.403075 z"
         style="fill:#660066"
         id="path3639" />
      <path
         d="m 41.142106,98.90711 v -0.656289 h 1.751825 l 0.09819,0.811318 q 0.237711,-0.428913 0.583942,-0.671792 0.351399,-0.242878 0.800982,-0.242878 0.118856,0 0.242879,0.02067 0.12919,0.0155 0.19637,0.03617 l -0.134359,0.945675 -0.578774,-0.031 q -0.403075,0 -0.676959,0.191202 -0.273884,0.186034 -0.423745,0.527098 v 3.209096 l 0.842323,0.14469 v 0.65112 h -2.702669 v -0.65112 l 0.842323,-0.14469 v -3.994575 z"
         style="fill:#660066"
         id="path3641" />
      <path
         d="m 49.167429,103.84219 q -0.04651,-0.22737 -0.07235,-0.40824 -0.02584,-0.18087 -0.03617,-0.36173 -0.294555,0.37723 -0.738971,0.63045 -0.439248,0.24804 -0.940508,0.24804 -0.873329,0 -1.32808,-0.42374 -0.454751,-0.42891 -0.454751,-1.20406 0,-0.79581 0.640786,-1.22473 0.645953,-0.43408 1.767328,-0.43408 h 1.049028 v -0.65112 q 0,-0.490922 -0.310057,-0.775142 -0.310058,-0.289387 -0.862994,-0.289387 -0.382404,0 -0.676959,0.09819 -0.289387,0.09818 -0.470254,0.268717 l -0.10852,0.589109 H 45.839478 V 98.81926 q 0.382404,-0.30489 0.925005,-0.485757 0.542601,-0.186034 1.178219,-0.186034 0.950843,0 1.539952,0.485757 0.58911,0.485757 0.58911,1.390094 v 2.69233 q 0,0.10852 0,0.21187 0.0052,0.10336 0.0155,0.20671 l 0.41341,0.0568 v 0.65112 z m -1.638137,-0.74413 q 0.506427,0 0.925005,-0.24288 0.418578,-0.24288 0.599444,-0.58394 V 101.3514 H 47.96854 q -0.625283,0 -0.992185,0.28938 -0.361733,0.28939 -0.361733,0.7028 0,0.3669 0.227375,0.56327 0.227376,0.19121 0.687295,0.19121 z"
         style="fill:#660066"
         id="path3643" />
      <path
         d="m 51.208643,96.436984 v -0.656288 h 1.860346 v 7.265684 l 0.842323,0.14469 v 0.65112 h -2.702669 v -0.65112 l 0.842323,-0.14469 v -6.464702 z"
         style="fill:#660066"
         id="path3645" />
      <path
         d="m 58.448487,103.17557 q -0.273884,0.3824 -0.671791,0.57877 -0.39274,0.19637 -0.91467,0.19637 -1.02319,0 -1.601964,-0.73897 -0.573607,-0.74414 -0.573607,-1.95336 v -0.10852 q 0,-1.348751 0.573607,-2.175571 0.578774,-0.82682 1.612299,-0.82682 0.496092,0 0.873329,0.186034 0.382405,0.180867 0.651121,0.527098 v -2.278923 l -0.842323,-0.144694 v -0.656288 h 0.842323 1.018023 v 7.265684 l 0.842323,0.14469 v 0.65112 H 58.53117 Z m -2.744009,-1.91719 q 0,0.84232 0.346231,1.35392 0.346231,0.51159 1.069698,0.51159 0.454752,0 0.764809,-0.2067 0.310058,-0.20671 0.511595,-0.58394 v -2.594152 q -0.19637,-0.351399 -0.511595,-0.558104 -0.315225,-0.206705 -0.754473,-0.206705 -0.728636,0 -1.080034,0.604613 -0.346231,0.604608 -0.346231,1.570958 z"
         style="fill:#660066"
         id="path3647" />
      <path
         d="m 68.292818,97.816741 -0.02584,-0.0052 -2.433952,6.030619 h -0.676959 l -2.433952,-6.025451 -0.02584,0.0052 0.103353,3.043731 v 2.18074 l 0.842323,0.14469 v 0.65112 h -2.702669 v -0.65112 l 0.842324,-0.14469 V 97.119112 L 60.939282,96.974419 V 96.31813 h 0.842324 1.302241 l 2.397779,6.1133 h 0.03101 l 2.392611,-6.1133 h 2.149733 v 0.656289 l -0.842323,0.144693 v 5.927268 l 0.842323,0.14469 v 0.65112 h -2.70267 v -0.65112 l 0.842323,-0.14469 v -2.18074 z"
         style="fill:#ff8800"
         id="path3649" />
      <path
         d="m 77.486023,100.13701 q 0,1.00251 -0.372069,1.82934 -0.372069,0.82682 -1.038693,1.33324 l 1.52445,1.07487 -0.697629,0.62011 -1.710485,-1.21956 q -0.258381,0.0827 -0.532266,0.1292 -0.273884,0.0465 -0.558103,0.0465 -1.457271,0 -2.366773,-1.0852 -0.909503,-1.0852 -0.909503,-2.7285 v -0.10852 q 0,-1.638143 0.909503,-2.728512 0.909502,-1.090369 2.366773,-1.090369 1.498612,0 2.43912,1.090369 0.945675,1.090369 0.945675,2.728512 z m -1.018022,-0.11886 q 0,-1.312577 -0.630451,-2.139398 -0.625282,-0.831988 -1.736322,-0.831988 -1.064531,0 -1.663976,0.831988 -0.594277,0.831988 -0.594277,2.139398 v 0.11886 q 0,1.32291 0.594277,2.1549 0.599445,0.82682 1.663976,0.82682 1.126542,0 1.746658,-0.82682 0.620115,-0.82682 0.620115,-2.1549 z"
         style="fill:#ff8800"
         id="path3651" />
    </g>
    <path
       style="fill:none;stroke:#ff8800;stroke-width:0.546583"
       id="path1137"
       sodipodi:type="arc"
       sodipodi:cx="-96.676086"
       sodipodi:cy="76.625603"
       sodipodi:rx="3.6954582"
       sodipodi:ry="3.6954582"
       sodipodi:start="0"
       sodipodi:end="1.5707963"
       sodipodi:open="true"
       sodipodi:arc-type="arc"
       d="m -92.980628,76.625603 a 3.6954582,3.6954582 0 0 1 -3.695458,3.695458"
       transform="rotate(-90)" />
    <path
       style="fill:none;stroke:#ff8800;stroke-width:0.529167;stroke-miterlimit:4;stroke-dasharray:none"
       id="path1137-6"
       sodipodi:type="arc"
       sodipodi:cx="-96.676086"
       sodipodi:cy="76.625603"
       sodipodi:rx="1.8477292"
       sodipodi:ry="1.8477292"
       sodipodi:start="0"
       sodipodi:end="1.5707963"
       sodipodi:arc-type="arc"
       sodipodi:open="true"
       d="m -94.828357,76.625603 a 1.8477292,1.8477292 0 0 1 -1.847729,1.847729"
       transform="rotate(-90)" />
    <ellipse
       style="fill:none;stroke:#ff8800;stroke-width:0.529167;stroke-miterlimit:4;stroke-dasharray:none"
       id="path1137-7"
       sodipodi:type="arc"
       sodipodi:cx="-96.676086"
       sodipodi:cy="76.625603"
       sodipodi:rx="2.7776885"
       sodipodi:ry="2.7776887"
       sodipodi:start="0"
       sodipodi:end="1.5707963"
       sodipodi:arc-type="arc"
       sodipodi:open="true"
       d="m -93.898398,76.625603 a 2.7776885,2.7776887 0 0 1 -2.777688,2.777688"
       transform="rotate(-90)" />
  </g>
</svg>
